<svg height="77.344" viewBox="0.133 157.451 639.839 165.111" width="300" xmlns="http://www.w3.org/2000/svg"><g fill="#002d72"><path d="M59.054 278.413a90.218 90.218 0 0010.489-6.833v-35.264l-10.489-6.946zm0-73.452l10.489 6.974v-17.8a262.32 262.32 0 00-10.489-.31zm31.439-8.998a324.365 324.365 0 00-10.489-1.097v23.987l10.489 7.03zm-10.49 47.327v19.179a104.656 104.656 0 0010.489-12.177zm20.951-45.724v35.348a119.868 119.868 0 0010.348-33.351h-.365a240.659 240.659 0 00-10.011-1.884"/><path d="M69.542 211.936v24.38l10.461 6.974v-24.409zm20.951 13.947v24.38a106.584 106.584 0 0010.461-17.35zm-54.414 12.036a16.317 16.317 0 007.874-5.005 35.08 35.08 0 00-3.993-1.153 26.09 26.09 0 01-3.88 6.074m-16.621-4.921a16.533 16.533 0 007.902 4.893 24.376 24.376 0 01-3.796-5.961 28.938 28.938 0 00-4.106 1.068m10.743-25.309a23.037 23.037 0 00-3.6 5.23c1.194.165 2.396.268 3.6.309zM41 228.977c1.64.381 3.248.889 4.809 1.519a16.248 16.248 0 002.278-6.917h-6.102a23.999 23.999 0 01-.985 5.398m-13.639-22.75a16.395 16.395 0 00-7.902 4.921c1.343.47 2.714.855 4.106 1.153a24.366 24.366 0 013.88-6.074m16.508 4.921a16.17 16.17 0 00-7.874-4.921 26.037 26.037 0 013.88 6.074 33.368 33.368 0 003.994-1.153m-1.969 9.42h6.102a16.108 16.108 0 00-2.278-6.889 35.382 35.382 0 01-4.809 1.49c.535 1.756.865 3.568.985 5.399m-8.774 16.001a23.038 23.038 0 003.6-5.259 34.982 34.982 0 00-3.6-.309zm-3.008-12.991h-5.624c.125 1.645.446 3.268.956 4.836a47.258 47.258 0 014.78-.45zm3.008 4.415c1.601.045 3.197.186 4.781.421.523-1.565.844-3.19.956-4.836h-5.624zm3.628-15.158a22.66 22.66 0 00-3.628-5.23v5.624a34.965 34.965 0 003.628-.309m2.109 7.648a19.415 19.415 0 00-.956-4.836 47.278 47.278 0 01-4.781.45v4.387h5.737zm-12.345 10.743a23.647 23.647 0 003.6 5.23v-5.624c-1.205.04-2.406.143-3.6.31m-4.19-16.058a38.818 38.818 0 01-4.836-1.49 16.475 16.475 0 00-2.25 6.889h6.13c.098-1.831.419-3.645.956-5.399m7.79 1.013a46.661 46.661 0 01-4.78-.45 20.768 20.768 0 00-.957 4.836h5.625zm-8.746 7.396h-6.13a16.59 16.59 0 002.25 6.917 34.37 34.37 0 014.836-1.519 22.542 22.542 0 01-.956-5.398"/><path d="M1.856 199.534c7.649 47.44 37.457 70.724 52.276 78.879v-84.587a264.368 264.368 0 00-51.911 5.624zm29.836 3.066c10.763-.062 19.538 8.612 19.6 19.375s-8.612 19.538-19.375 19.6-19.538-8.612-19.6-19.375v-.112c.016-10.745 8.714-19.457 19.459-19.487"/><path d="M110.937 163.202a259.5 259.5 0 00-108.659 0 2.811 2.811 0 00-2.137 2.812v9.786c-.062 6.115.249 12.229.928 18.307a269.954 269.954 0 01110.993 0 151.165 151.165 0 001.097-18.307v-9.814a2.812 2.812 0 00-2.25-2.812m-12.262 24.297a239.218 239.218 0 00-42.181-3.375 239.416 239.416 0 00-42.181 3.375.59.59 0 01-.675-.9l8.971-19.685c0-.197 5.877-3.065 5.877-3.065a58.09 58.09 0 0127.924 2.25 58.067 58.067 0 0127.924-2.25s5.792 2.812 5.877 3.065l8.971 19.685a.618.618 0 01-.703.9"/><path d="M82.197 167.167l3.769 10.095a54.49 54.49 0 00-26.799 2.812v.956c10.152-.394 23.003-.956 33.379 1.266l-5.624-12.992zM27.08 177.263l3.769-10.095-4.668 2.165-5.652 12.964c10.376-2.25 23.199-1.688 33.351-1.293v-.9a54.468 54.468 0 00-26.799-2.812m121.228 4.132c0-8.886-.815-9.842-5.624-10.264h-1.997a1.575 1.575 0 01.169-1.997c4.64 0 7.368.225 10.714.225s5.934 0 9.111-.225c.538.534.609 1.379.168 1.997h-1.181c-4.724.646-4.893 1.771-4.893 10.264v29.667a44.549 44.549 0 01-1.856 15.523 17.379 17.379 0 01-15.775 11.529c-.956 0-3.431 0-3.431-1.687 0-1.688 1.181-3.684 2.812-3.684 1.013 0 2.019.162 2.98.478 1.085.339 2.21.528 3.347.562a3.402 3.402 0 003.206-2.081c1.828-3.768 2.081-15.748 2.081-20.078zm12.457 18.842c-.285-12.888 9.931-23.566 22.818-23.852.408-.009.817-.007 1.226.005 12.251-.665 22.721 8.729 23.386 20.98.04.73.043 1.461.011 2.191.281 12.717-9.8 23.253-22.516 23.535-.293.006-.587.007-.88.002-14.99 0-24.045-10.713-24.045-22.861m40.691 1.405c0-11.248-4.921-23.143-17.8-23.143-7.03 0-16.142 4.78-16.142 19.684 0 9.983 4.865 22.947 18.166 22.947 8.099 0 15.776-6.074 15.776-19.375m22.103-1.518c-3.234 0-3.375 0-3.375 2.165v9.505c0 7.086.337 8.014 4.105 8.436l1.969.197c.394.281.253 1.491 0 1.688-3.656-.141-5.934-.197-8.437-.197s-5.202.141-7.817.197a1.266 1.266 0 010-1.688l1.153-.197c3.768-.675 3.909-1.35 3.909-8.436V187.64c0-7.086-.478-8.239-3.993-8.436h-1.743c-.422-.281-.281-1.491 0-1.688 3.29 0 5.624.197 8.436.197s4.921 0 7.817-.197c.422.197.562 1.406 0 1.688h-1.265c-3.909.422-4.049 1.434-4.049 8.436v7.761c0 2.081 0 2.166 3.375 2.166h19.263c3.234 0 3.374 0 3.374-2.166v-7.761c0-7.086-.141-8.099-4.105-8.436h-1.293a1.322 1.322 0 010-1.688c3.093 0 5.399.197 8.155.197s5.118-.281 7.93-.394c.422.197.562 1.406 0 1.688h-1.406c-3.909.421-4.05 1.434-4.05 8.436v24.296c0 7.086 0 7.958 4.05 8.436l1.603.197c.422.281.281 1.491 0 1.688-3.262-.141-5.624-.197-8.183-.197s-5.202 0-8.155.197c-.422-.197-.535-1.293 0-1.688l1.293-.197c4.105-.675 4.105-1.35 4.105-8.436v-9.308c0-2.053-.141-2.165-3.375-2.165zm79.975 10.32c0 2.024 0 10.039.197 11.811-.22.504-.748.802-1.293.731-.787-1.153-2.812-3.515-8.633-10.18l-15.664-17.829c-1.799-2.081-6.411-7.621-7.817-9.111a17.94 17.94 0 00-.337 4.387v14.707c0 3.178 0 11.952 1.209 14.061.422.759 1.772 1.153 3.459 1.293l2.081.197a1.21 1.21 0 010 1.688c-3.037-.141-5.399-.197-7.874-.197s-4.668 0-7.03.197a1.268 1.268 0 010-1.688l1.828-.197c1.546-.197 2.643-.619 2.981-1.35a66.49 66.49 0 00.872-13.92v-19.572a6.16 6.16 0 00-1.49-4.865 7.436 7.436 0 00-4.19-1.631h-1.153c-.394-.422-.394-1.434 0-1.688 2.812.197 6.412.197 7.621.197a25.757 25.757 0 002.728-.31c1.35 3.431 9.308 12.345 11.529 14.848l6.552 7.34c4.64 5.202 7.958 8.97 11.249 12.232a7.319 7.319 0 00.253-2.812v-14.482c0-3.178 0-11.951-1.35-14.061-.394-.59-1.49-1.012-4.162-1.35h-1.153c-.478-.422-.422-1.49 0-1.687 3.121 0 5.427.197 7.986.197s4.64 0 6.946-.197a1.21 1.21 0 010 1.687h-.957c-2.165.337-3.515.9-3.768 1.434-1.153 2.418-1.012 10.798-1.012 13.892zm17.828 12.541a20.704 20.704 0 01-10.517-2.502 31.183 31.183 0 01-1.828-9.449c.337-.478 1.35-.59 1.603-.197 1.013 3.431 3.796 10.067 11.615 10.067a7.648 7.648 0 008.435-7.761 10.097 10.097 0 00-5.624-9.448l-6.215-4.19a14.457 14.457 0 01-7.396-11.727c0-6.412 5.006-11.614 13.78-11.614a25.77 25.77 0 016.271.9c.769.228 1.562.36 2.362.394a29.21 29.21 0 011.209 8.239 1.35 1.35 0 01-1.688.197 8.83 8.83 0 00-9.167-7.621c-6.608 0-8.042 4.387-8.042 7.48a10.657 10.657 0 005.624 8.296l5.4 3.375c4.273 2.643 8.436 6.552 8.436 12.963 0 7.424-5.624 12.486-14.369 12.486m54.554-26.659c-3.853 0-3.993.169-3.993 2.559v11.249c0 8.436.394 9.533 4.865 10.011l2.334.225c.429.62.357 1.457-.169 1.997-4.331-.169-7.03-.225-10.151-.225s-6.188.141-9.28.225c-.506-.225-.646-1.519-.169-1.997l1.35-.225c4.472-.815 4.641-1.603 4.641-10.011v-28.908c0-8.437-.562-9.758-4.725-10.095h-2.081a1.575 1.575 0 01.169-1.997c3.908 0 6.637.225 10.096.225s5.82 0 9.279-.225c.519.546.577 1.383.141 1.997h-1.519c-4.64.506-4.78 1.687-4.78 10.095v9.195c0 2.475 0 2.559 3.993 2.559h22.862c3.853 0 4.021 0 4.021-2.559v-9.195c0-8.437-.169-9.589-4.894-10.095h-1.519a1.577 1.577 0 01.169-1.997c3.655 0 6.384.225 9.674.225s5.849 0 9.448-.225c.476.58.476 1.416 0 1.997h-1.659c-4.64.506-4.809 1.687-4.809 10.095v28.795c0 8.437.169 9.449 4.809 10.011l1.912.225c.429.62.358 1.457-.169 1.997a203.9 203.9 0 00-9.673-.225c-3.122 0-6.159 0-9.674.225a1.548 1.548 0 01-.169-1.997l1.519-.225c4.894-.815 4.894-1.603 4.894-10.011v-11.248c0-2.39-.169-2.559-4.021-2.559z"/><path d="M415.456 200.266c-.285-12.888 9.931-23.566 22.818-23.851a22.71 22.71 0 011.196.004c12.251-.68 22.732 8.7 23.413 20.95.041.74.045 1.481.012 2.221.281 12.717-9.799 23.253-22.516 23.535-.303.007-.606.007-.909.002-14.959 0-24.014-10.713-24.014-22.861m40.69 1.405c0-11.248-4.921-23.143-17.828-23.143-7.002 0-16.113 4.78-16.113 19.684 0 9.983 4.864 22.947 18.166 22.947 8.099 0 15.775-6.074 15.775-19.375m18.954 10.152c0 7.086.141 7.958 4.472 8.436l1.828.197a1.351 1.351 0 01-.141 1.688c-3.853-.141-6.074-.197-8.774-.197-2.699 0-5.258 0-8.239.197a1.351 1.351 0 01-.141-1.688l1.435-.197c3.908-.534 4.049-1.35 4.049-8.436v-24.915c0-5.624-.141-6.89-3.178-7.227l-2.446-.309a1.154 1.154 0 010-1.688 105.45 105.45 0 0113.357-.534 24.248 24.248 0 0112.964 2.812 11.584 11.584 0 015.399 10.124 11.39 11.39 0 01-6.749 10.714 22.499 22.499 0 01-9.309 2.025c-.478-.197-.478-1.209 0-1.35 7.284-1.35 9.899-5.455 9.899-11.248.534-5.456-3.455-10.313-8.912-10.848a9.857 9.857 0 00-1.858-.007c-3.571 0-3.656.253-3.656 2.418zm28.092-24.297c0-7.086-.141-8.183-4.049-8.436h-1.688c-.394-.281-.253-1.491 0-1.688 3.29 0 5.455.197 8.437.197 2.98 0 4.921 0 7.846-.197.394.197.534 1.406 0 1.688h-1.266c-3.909.422-4.05 1.434-4.05 8.436v7.761c0 1.266.141 2.559.872 2.559a3.797 3.797 0 001.884-.731c.956-.815 2.812-2.587 3.459-3.262l7.283-7.199c1.266-1.237 4.584-4.668 5.259-5.624.269-.297.436-.671.478-1.069 0-.281-.281-.478-1.152-.675l-1.828-.394a1.126 1.126 0 01.14-1.688c2.362 0 5.062.197 7.424.197s4.668 0 6.665-.197a1.24 1.24 0 010 1.688 15.97 15.97 0 00-6.271 1.884 68.322 68.322 0 00-9.448 7.818l-6.074 5.624c-.928.956-1.547 1.546-1.547 2.109s.394 1.012 1.294 2.081c6.411 7.339 11.586 13.442 16.872 18.953a7.787 7.787 0 005.118 2.812l1.321.197a1.18 1.18 0 01-.14 1.687c-1.771-.141-3.599-.197-6.776-.197-2.812 0-5.146 0-8.239.197-.479-.141-.675-1.293-.281-1.687l1.574-.281c.928 0 1.604-.337 1.604-.675s-.479-.928-.929-1.547c-1.293-1.603-3.037-3.431-5.624-6.327l-5.399-6.074c-3.824-4.331-4.921-5.624-6.523-5.624-1.013 0-1.153.872-1.153 3.234v8.717c0 7.086.141 8.015 3.909 8.437l1.827.197c.395.281.254 1.49 0 1.687-3.317-.141-5.624-.197-8.239-.197s-5.062 0-7.817.197c-.422-.197-.534-1.209-.141-1.687l1.35-.197c3.571-.534 3.712-1.35 3.712-8.437zm46.231.281c0-7.171 0-8.436-4.105-8.661h-1.688a1.323 1.323 0 01.141-1.688c3.375 0 5.624.197 8.437.197s5.006 0 8.437-.197c.394.197.534 1.406 0 1.688h-1.688c-3.769.225-3.909 1.35-3.909 8.661v24.015c0 7.143.141 8.099 4.134 8.577l1.688.197c.394.281.253 1.491 0 1.688-3.374-.141-5.624-.197-8.437-.197-2.812 0-4.864 0-8.239.197a1.351 1.351 0 01-.141-1.688l1.435-.197c3.937-.619 3.937-1.659 3.937-8.717V187.92zm58.463 22.666c0 2.024 0 10.039.226 11.811-.228.498-.75.793-1.294.731-.815-1.153-2.812-3.515-8.633-10.18l-15.663-17.829c-1.828-2.081-6.412-7.621-7.818-9.111h-.141a16.655 16.655 0 00-.337 4.387v14.707c0 3.178 0 11.952 1.209 14.061.394.759 1.743 1.153 3.431 1.293l2.109.197c.405.512.344 1.25-.141 1.688a162.759 162.759 0 00-7.902-.197c-2.502 0-4.64 0-7.002.197a1.24 1.24 0 01-.141-1.688l1.828-.197c1.547-.197 2.615-.619 2.953-1.35a64.709 64.709 0 00.871-13.92v-19.572a6.216 6.216 0 00-1.462-4.865 7.509 7.509 0 00-4.19-1.631h-1.152c-.395-.422-.395-1.434.141-1.688 2.812.197 6.411.197 7.62.197a25.615 25.615 0 003.094-.197c1.378 3.431 9.336 12.345 11.558 14.848l6.552 7.339c4.64 5.202 7.958 8.971 11.248 12.232a6.585 6.585 0 00.281-2.812v-14.595c0-3.178 0-11.951-1.35-14.061-.394-.59-1.49-1.012-4.189-1.35h-1.153c-.45-.422-.394-1.49 0-1.687 3.121 0 5.399.197 7.958.197 2.56 0 4.668 0 6.974-.197a1.18 1.18 0 01.018 1.67l-.018.017h-.928c-2.165.337-3.515.9-3.796 1.434-1.125 2.418-1.013 10.798-1.013 13.892zm17.745 12.541a20.962 20.962 0 01-10.546-2.502 31.153 31.153 0 01-1.828-9.449c.366-.478 1.351-.59 1.632-.197 1.012 3.431 3.768 10.067 11.613 10.067a7.677 7.677 0 008.436-7.761 10.151 10.151 0 00-5.624-9.448l-6.412-4.19a14.369 14.369 0 01-7.198-11.727c0-6.412 4.977-11.614 13.778-11.614 2.12.042 4.226.345 6.271.9.768.23 1.562.362 2.362.394a30.269 30.269 0 011.293 8.352c-.281.394-1.35.59-1.687.197a8.83 8.83 0 00-9.196-7.621c-6.608 0-8.014 4.387-8.014 7.48a10.597 10.597 0 005.624 8.295l5.398 3.375c4.247 2.644 8.437 6.552 8.437 12.964 0 7.424-5.624 12.485-14.369 12.485m-394.955 34.336c0-3.656 0-4.218-2.109-4.415h-.872c-.197 0 0-.759 0-.872h8.436a.675.675 0 010 .872h-.675c-2.024.226-2.081.759-2.081 4.415v3.993c0 .675 0 1.351.45 1.351.349-.043.679-.18.956-.395.506-.422 1.406-1.321 1.8-1.688l3.768-3.711c.647-.647 2.362-2.419 2.812-2.812a.93.93 0 00.253-.562c0-.141 0-.253-.591-.365l-.928-.197a.562.562 0 010-.871h7.284a.646.646 0 010 .871 8.448 8.448 0 00-3.262.984 35.415 35.415 0 00-4.865 4.049l-3.149 2.812c-.478.479-.816.815-.816 1.097s.225.507.675 1.068c3.318 3.796 6.018 6.946 8.717 9.814a4.296 4.296 0 002.812 1.405h.928a.621.621 0 010 .873h-8.183c-.225 0-.338-.647 0-.873l.815-.141c.478 0 .843-.168.843-.337s-.253-.506-.506-.815c-.647-.815-1.547-1.771-2.812-3.262l-2.812-3.15c-1.997-2.221-2.559-2.812-3.375-2.812s-.591.45-.591 1.659v4.5c0 3.684 0 4.161 2.025 4.357h.928c.225 0 .141.76 0 .873h-8.323a.676.676 0 010-.873h.703c1.856-.252 1.912-.674 1.912-4.357zm25.281.028c0-3.318 0-3.909-1.546-4.077h-1.097a.563.563 0 010-.872c1.94-.169 4.358-.281 7.761-.281 2.005-.13 4.012.228 5.849 1.04a5.232 5.232 0 012.812 4.894 6.437 6.437 0 01-4.302 5.651c-.169.197 0 .562.197.844a37.896 37.896 0 007.002 9.28 4.394 4.394 0 002.418.984c.168 0 .197.337 0 .478a5.207 5.207 0 01-1.547.17c-2.812 0-4.724-.873-7.199-4.388-.928-1.294-2.362-3.712-3.431-5.286a2.506 2.506 0 00-2.475-1.098c-1.575 0-1.631 0-1.631.76v4.387c0 3.684 0 4.105 2.081 4.359h.731a.676.676 0 010 .871h-8.521c-.225 0-.281-.619 0-.871h.872c2.024-.226 2.109-.676 2.109-4.359zm2.812 4.978a3.326 3.326 0 000 1.152s.647.197 2.418.197a5.63 5.63 0 003.6-.928 5.036 5.036 0 001.744-4.331 5.146 5.146 0 00-5.625-5.371c-2.165 0-2.25 0-2.25 1.125zm21.428-4.949c0-3.684 0-4.274-2.137-4.472h-.872a.732.732 0 010-.872h8.746c.197 0 .281.731 0 .872h-.872c-2.053.197-2.137.788-2.137 4.472v12.43c0 3.684 0 4.189 2.137 4.414h.872c.225 0 0 .76 0 .872h-8.746a.703.703 0 010-.872h.872c2.053-.225 2.137-.73 2.137-4.414zm13.526-.057c0-3.627 0-4.162-2.137-4.415h-.562a.675.675 0 010-.872h10.657a43.28 43.28 0 004.724 0 41.57 41.57 0 01.562 4.641c0 .197-.703.281-.872 0-.535-1.631-.844-2.812-2.672-3.291a14.909 14.909 0 00-3.375-.225h-2.502c-1.041 0-1.041 0-1.041 1.406v6.975c0 .984 0 .984 1.125.984h2.024c.999.041 2-.034 2.981-.226.422 0 .646-.337.844-1.21l.281-1.434a.649.649 0 01.9 0v6.89a.733.733 0 01-.9 0l-.337-1.378c-.141-.619-.365-1.152-1.068-1.322a11.78 11.78 0 00-2.812-.168h-2.025c-1.041 0-1.125 0-1.125.956v4.894c0 1.855 0 3.037.646 3.627.647.591 1.153.815 4.218.815a9.954 9.954 0 004.471-.534 8.437 8.437 0 002.475-3.375.647.647 0 01.872.254 31.429 31.429 0 01-1.575 4.836h-17.237a.673.673 0 010-.871h1.153c1.997-.169 2.165-.675 2.165-4.359zm39.341 14.228c0 1.406.196 2.223.843 2.475a.309.309 0 010 .422 7.763 7.763 0 00-1.687.311c-2.04.535-4.135.836-6.243.899a14.644 14.644 0 01-10.657-3.853 11.08 11.08 0 01-3.206-7.93 12.008 12.008 0 013.149-8.268 14.425 14.425 0 0111.052-4.078 20.96 20.96 0 014.415.506 10.17 10.17 0 002.193.422 40.73 40.73 0 00.534 5.062c0 .253-.731.309-.956 0a6.357 6.357 0 00-7.228-5.062 9.251 9.251 0 00-9.729 10.039c0 6.721 3.459 11.98 10.461 11.98 2.165 0 3.459-.451 3.853-1.041a4.06 4.06 0 00.338-1.996v-1.406c0-2.812 0-3.121-2.278-3.375l-1.519-.168c-.281-.141-.253-.788 0-.872h8.69c.24.241.24.63 0 .872h-.562c-1.462.168-1.49 1.152-1.49 2.812zm8.745-14.228c0-3.627 0-4.162-2.137-4.415h-.562a.675.675 0 010-.872h10.685c1.574.086 3.15.086 4.725 0 .273 1.535.462 3.084.562 4.641-.141.197-.703.281-.872 0-.534-1.631-.844-2.812-2.812-3.291a14.913 14.913 0 00-3.375-.225h-2.503c-1.068 0-1.068 0-1.068 1.406v6.975c0 .984 0 .984 1.153.984h2.024c.999.041 1.999-.034 2.981-.226.421 0 .646-.337.843-1.21l.281-1.434a.647.647 0 01.899 0v6.89a.731.731 0 01-.899 0l-.337-1.378c0-.619-.366-1.152-1.068-1.322a11.782 11.782 0 00-2.812-.168h-2.025c-1.04 0-1.152 0-1.152.956v4.894c0 1.855 0 3.037.675 3.627.675.591 1.153.815 4.218.815a9.96 9.96 0 004.472-.534 8.437 8.437 0 002.475-3.375.647.647 0 01.872.254 31.647 31.647 0 01-1.575 4.836h-17.238a.673.673 0 010-.871h1.153c1.996-.169 2.165-.675 2.165-4.359zm22.047.028c0-3.318 0-3.909-1.547-4.077h-1.097a.564.564 0 010-.872c1.94-.169 4.358-.281 7.762-.281 2.005-.13 4.012.228 5.849 1.04a5.233 5.233 0 012.812 4.894 6.438 6.438 0 01-4.189 5.651c-.197.197 0 .562.168.844a37.922 37.922 0 007.002 9.28 4.394 4.394 0 002.418.984c.17 0 .197.337 0 .478a5.2 5.2 0 01-1.546.17c-2.952 0-4.725-.873-7.199-4.388-.928-1.294-2.362-3.712-3.431-5.286a2.506 2.506 0 00-2.475-1.098c-1.574 0-1.631 0-1.631.76v4.387c0 3.684 0 4.105 2.081 4.359h.731a.646.646 0 010 .871h-8.493a.702.702 0 010-.871h.872c2.024-.226 2.109-.676 2.109-4.359zm2.813 4.978a3.278 3.278 0 000 1.152s.646.197 2.418.197a5.632 5.632 0 003.6-.928 5.033 5.033 0 001.743-4.331 5.146 5.146 0 00-5.624-5.371c-2.165 0-2.25 0-2.25 1.125zm35.291 13.329c-1.9.052-3.78-.395-5.455-1.294a15.507 15.507 0 01-.928-4.865c.168-.252.702-.309.843 0a6.327 6.327 0 005.99 5.203 3.965 3.965 0 004.359-4.022 5.202 5.202 0 00-2.812-4.865l-3.318-2.165a7.455 7.455 0 01-3.769-6.018c0-3.318 2.587-5.989 7.143-5.989a13.03 13.03 0 013.234.449 4.43 4.43 0 001.209.197c.413 1.387.631 2.826.646 4.273 0 .197-.703.311-.871 0a4.585 4.585 0 00-4.753-3.965 3.657 3.657 0 00-4.162 3.881 5.624 5.624 0 002.925 4.415l2.812 1.743a7.845 7.845 0 014.33 6.693 6.58 6.58 0 01-7.424 6.439m16.845-21.285a15.13 15.13 0 019.42-2.812 25.32 25.32 0 016.159.844c.319.095.65.142.983.141 0 .787.197 2.98.479 5.118a.703.703 0 01-.928 0 6.356 6.356 0 00-7.171-5.09c-5.315 0-9.871 3.402-9.871 10.602 0 7.198 4.641 11.248 10.377 11.248a7.394 7.394 0 007.283-5.005.76.76 0 01.9 0 12.902 12.902 0 01-1.659 4.779 9.104 9.104 0 00-1.237.366 20.5 20.5 0 01-5.624.788 15.16 15.16 0 01-8.661-2.335 11.244 11.244 0 01-4.781-9.421 11.586 11.586 0 014.415-9.251m29.049 9.391c-1.659 0-1.743 0-1.743 1.098v4.921c0 3.684.196 4.161 2.137 4.358h1.013a.675.675 0 010 .872h-8.465a.675.675 0 010-.872h.591c1.94-.337 2.024-.675 2.024-4.358v-12.542c0-3.656-.253-4.274-2.081-4.415h-.899a.675.675 0 010-.872h8.437c.196 0 .281.731 0 .872h-.647c-2.024.226-2.108.759-2.108 4.415v3.993c0 1.097 0 1.125 1.743 1.125h9.982c1.688 0 1.744 0 1.744-1.125v-3.993c0-3.656 0-4.189-2.138-4.415h-.646a.732.732 0 010-.872h8.352c.197 0 .281.731 0 .872h-.73c-2.025.226-2.081.759-2.081 4.415v12.542c0 3.684 0 4.134 2.081 4.358h.844c.225 0 .14.76 0 .872h-8.465a.703.703 0 010-.872h.646c2.138-.337 2.138-.675 2.138-4.358v-4.921c0-1.041 0-1.098-1.744-1.098zm22.019 0c-.143-6.66 5.142-12.176 11.803-12.318.199-.004.399-.004.599.002 6.326-.363 11.749 4.471 12.111 10.797.022.385.025.77.009 1.154.156 6.568-5.041 12.02-11.608 12.176-.171.004-.341.004-.512.001-6.466.373-12.01-4.565-12.383-11.032a11.91 11.91 0 01-.019-.78m21.034.733c0-5.766-2.559-11.98-9.224-11.98-3.627 0-8.437 2.475-8.437 10.124 0 5.174 2.503 11.866 9.364 11.866 4.19 0 8.184-3.148 8.184-10.01m8.521-.733c-.127-6.676 5.183-12.191 11.86-12.318.189-.004.379-.003.569.002 6.326-.363 11.748 4.471 12.111 10.797.022.385.025.77.009 1.154.141 6.584-5.083 12.035-11.666 12.176-.151.003-.303.004-.454.001-6.481.372-12.038-4.579-12.41-11.06-.014-.25-.021-.501-.019-.752m21.034.733c0-5.766-2.53-11.98-9.195-11.98-3.628 0-8.437 2.475-8.437 10.124 0 5.174 2.531 11.866 9.393 11.866 4.19 0 8.155-3.148 8.155-10.01m11.108-7.256c0-3.656 0-4.218-2.277-4.415h-.872a.675.675 0 010-.872h8.83c.196 0 .281.731 0 .872h-.844c-2.053.197-2.109.759-2.109 4.415v12.008c0 2.221 0 3.121.731 3.768s1.04.816 3.796.816 3.712-.141 4.247-.45a7.546 7.546 0 002.306-3.459c.225-.169.871 0 .871.226a28.783 28.783 0 01-1.462 4.864h-16.422a.675.675 0 010-.872h1.069c2.024-.197 2.08-.675 2.08-4.358zm-304.464 45.892a13.183 13.183 0 01-3.74 7.902 6.666 6.666 0 01-5.006 2.419c-2.221 0-3.684-1.659-3.487-4.641a13.186 13.186 0 013.796-7.817 6.86 6.86 0 014.837-2.277c2.475 0 3.684 1.855 3.543 4.414m-6.354-1.686a20.23 20.23 0 00-3.487 8.718c0 1.237.422 2.249 1.434 2.249 1.013 0 1.659-.337 2.812-1.828a21.576 21.576 0 003.262-8.436c0-1.069-.197-2.306-1.406-2.306-.703 0-1.546.337-2.559 1.687m16.479-1.013c-.225.592-.506 1.688-.9 3.234a576.042 576.042 0 01-3.121 11.08 13.658 13.658 0 01-2.812 5.624 6.529 6.529 0 01-4.19 1.884c-1.884 0-2.531-1.181-2.531-1.716a2.135 2.135 0 01.788-1.574.62.62 0 01.815 0 4.165 4.165 0 002.643 1.435c.703 0 1.435-.226 2.222-2.812 1.603-5.624 2.812-11.501 4.5-17.182h-2.84a.901.901 0 01.199-1.258l.054-.036h3.009a21.266 21.266 0 013.909-8.437 7.062 7.062 0 015.624-2.812 2.587 2.587 0 012.812 2.306c0 .928-.956 1.996-1.519 1.996s-.45-.309-.478-.562c0-1.913-1.068-2.56-1.94-2.56s-1.715.703-2.531 1.912a25.849 25.849 0 00-3.515 8.184h4.359a.955.955 0 01-.337 1.293h-4.22zm28.318 4.331c-.253-.759-.394-.843-1.435-.843h-5.287c-.844 0-1.068 0-1.322.814l-1.209 3.797a12.026 12.026 0 00-.759 2.812c0 .394.169.619 1.012.675h1.153a.591.591 0 010 .872h-6.974c-.197 0-.281-.703 0-.872h1.125a2.307 2.307 0 002.109-1.687c.619-1.604 1.603-3.881 3.065-7.79l3.571-9.42a5.367 5.367 0 00.591-2.475 3.98 3.98 0 001.8-1.322.508.508 0 01.534.31c.45 1.547 1.012 3.149 1.519 4.668l4.78 14.061c1.013 3.009 1.462 3.515 2.981 3.684h.928a.648.648 0 010 .872h-8.211a.59.59 0 010-.872h1.012c.731 0 1.209-.281 1.209-.618a7.014 7.014 0 00-.45-1.856zm-6.918-3.092c-.281.814-.253.844.731.844h4.303c1.012 0 1.068 0 .759-1.098l-1.884-5.623a20.97 20.97 0 00-.815-2.193 20.969 20.969 0 00-.844 2.053zm20.64-6.553c0-3.318 0-3.908-1.519-4.077l-1.125-.141a.563.563 0 010-.872c1.969-.168 4.359-.281 7.79-.281a12.322 12.322 0 015.821 1.041 5.23 5.23 0 012.812 4.893 6.44 6.44 0 01-4.359 5.821c-.168.196 0 .562.169.843a37.896 37.896 0 007.002 9.28c.689.56 1.533.893 2.418.956a.31.31 0 010 .507 5.119 5.119 0 01-1.519.168c-2.981 0-4.752-.871-7.227-4.387-.928-1.293-2.334-3.712-3.431-5.286a2.478 2.478 0 00-2.475-1.098c-1.575 0-1.631 0-1.631.76v4.387c0 3.685 0 4.078 2.081 4.359h.731a.673.673 0 010 .871h-8.521a.673.673 0 010-.871h.872c2.024-.226 2.081-.675 2.081-4.359zm2.812 4.977v1.153s.619.168 2.39.168a5.628 5.628 0 003.6-.899 5.035 5.035 0 001.744-4.331 5.148 5.148 0 00-5.624-5.371c-2.137 0-2.25 0-2.25 1.125zm28.234 7.536c0 3.685 0 4.19 2.081 4.359h1.125a.673.673 0 010 .871h-9.392a.59.59 0 010-.871h1.237c1.997-.169 2.165-.675 2.165-4.359v-15.578c0-1.098 0-1.125-1.041-1.125h-1.912a7.256 7.256 0 00-4.302.871 6.412 6.412 0 00-1.575 2.419.675.675 0 01-.9-.253 37.273 37.273 0 001.322-5.203h.675c.197 1.125 1.35 1.098 2.812 1.098h14.06c1.884 0 2.194 0 2.812-.984a.648.648 0 01.646 0c-.41 1.73-.59 3.508-.534 5.286a.647.647 0 01-.9 0 4.693 4.693 0 00-.872-2.559 7.034 7.034 0 00-4.049-.872h-2.475c-1.041 0-1.013 0-1.013 1.182zm19.318 5.793a10.916 10.916 0 01-5.455-1.293 15.546 15.546 0 01-.928-4.865c.168-.253.703-.338.844 0a6.326 6.326 0 006.13 5.09 3.965 3.965 0 004.359-4.022 5.257 5.257 0 00-2.812-4.893l-3.318-2.137a7.456 7.456 0 01-3.853-6.019c0-3.318 2.588-5.989 7.143-5.989a13.03 13.03 0 013.234.449 4.43 4.43 0 001.209.197c.414 1.388.631 2.826.646 4.274 0 .196-.703.31-.871 0a4.584 4.584 0 00-4.753-3.937 3.655 3.655 0 00-4.161 3.88 5.626 5.626 0 002.98 4.303l2.812 1.743a7.844 7.844 0 014.358 6.693 6.578 6.578 0 01-7.424 6.439m33.774-21.284a1.35 1.35 0 01-1.32 1.377h-.002c-.618 0-.814-.393-.983-1.04a1.295 1.295 0 00-1.237-1.013 3.32 3.32 0 00-2.277 1.125 6.136 6.136 0 00-1.744 4.415 3.794 3.794 0 00.225 1.519 4.247 4.247 0 012.812-1.237 2.81 2.81 0 013.037 2.811 2.813 2.813 0 01-3.037 2.812 3.766 3.766 0 01-3.486-2.306 6.236 6.236 0 00-.9 3.571 7.226 7.226 0 007.986 6.918 8.96 8.96 0 005.483-1.8 8.611 8.611 0 003.263-6.3 6.67 6.67 0 00-.76-3.655c-.225-.281-.9-.506-2.307-.506a2.39 2.39 0 00-2.586 2.39.872.872 0 00.702.957c.253 0 .394 0 .562-.45a1.041 1.041 0 012.025.45c0 .955-.955 1.434-1.884 1.434a2.447 2.447 0 01-2.503-2.389v-.113a3.347 3.347 0 01.9-2.307 5.201 5.201 0 013.768-1.434h2.812c1.659 0 5.174 0 5.174-3.684a2.811 2.811 0 00-2.671-2.812.701.701 0 00-.703.646c0 .169 0 .31.365.506.401.254.662.68.703 1.153a1.377 1.377 0 01-1.49 1.462 1.716 1.716 0 01-1.716-1.799 2.814 2.814 0 013.037-2.812 4.021 4.021 0 013.825 4.528 4.303 4.303 0 01-1.434 3.375 7.628 7.628 0 01-5.033 1.434c-.395 0-.479 0-.338.59.587 1.283.912 2.669.956 4.078a9.954 9.954 0 01-10.264 9.505 8.438 8.438 0 01-9.393-8.437 8.657 8.657 0 011.968-5.398 8.435 8.435 0 011.435-7.396 5.79 5.79 0 014.247-2.193c1.771 0 2.812 1.041 2.812 2.166m-7.031 7.31a2.812 2.812 0 002.644 2.25 1.547 1.547 0 001.687-1.518 1.827 1.827 0 00-1.968-1.827 3.32 3.32 0 00-2.363 1.095m39.426 13.92a10.655 10.655 0 01-5.428-1.293 16.27 16.27 0 01-.956-4.865c.196-.253.703-.338.844 0a6.382 6.382 0 006.018 5.202 3.965 3.965 0 004.359-4.022 5.315 5.315 0 00-2.812-4.893l-3.318-2.138a7.455 7.455 0 01-3.769-6.018c0-3.318 2.588-5.99 7.115-5.99 1.102.015 2.197.166 3.262.451.392.121.799.188 1.209.196a15.69 15.69 0 01.619 4.274.675.675 0 01-.872 0 4.557 4.557 0 00-4.725-3.938 3.655 3.655 0 00-4.161 3.881 5.619 5.619 0 002.812 4.303l2.812 1.744a7.842 7.842 0 014.358 6.664c0 3.824-2.812 6.439-7.452 6.439m16.113-21.171a14.961 14.961 0 019.421-2.952 25.27 25.27 0 016.158.844c.325.062.659.062.984 0 0 .814.196 3.008.478 5.146a.703.703 0 01-.928 0 6.357 6.357 0 00-7.171-5.09c-5.314 0-9.87 3.403-9.87 10.602s4.64 11.248 10.376 11.248a7.396 7.396 0 007.199-4.696.76.76 0 01.9.141 12.924 12.924 0 01-1.659 4.781 8.96 8.96 0 00-1.237.365 20.462 20.462 0 01-5.625.787 15.294 15.294 0 01-8.688-2.334 11.245 11.245 0 01-4.949-9.589 11.527 11.527 0 014.415-9.252m24.746 2.895c0-3.684 0-4.274-2.138-4.472h-.872c-.225-.141-.141-.759 0-.871h8.718a.673.673 0 010 .871h-.872c-2.053.197-2.137.788-2.137 4.472v12.43c0 3.684 0 4.189 2.137 4.415h.872a.673.673 0 010 .871h-8.718a.673.673 0 010-.871h.872c2.053-.226 2.138-.731 2.138-4.415zm13.526-.056c0-3.628 0-4.162-2.137-4.387h-.562a.676.676 0 010-.873h10.658a43.28 43.28 0 004.724 0c.276 1.534.455 3.084.534 4.641a.646.646 0 01-.844 0c-.534-1.631-.844-2.812-2.812-3.29a15.03 15.03 0 00-3.375-.226h-2.306c-1.068 0-1.068 0-1.068 1.406v6.975c0 .984 0 .984 1.152.984h2.025c.999.041 1.999-.034 2.98-.226.422-.141.646-.337.815-1.209l.281-1.435c.197-.225.787-.225.928 0v6.862c0 .254-.73.254-.928 0l-.281-1.406c0-.618-.365-1.152-1.068-1.321a11.832 11.832 0 00-2.812-.169h-2.024c-1.04 0-1.153 0-1.153.928v4.922c0 1.855 0 3.037.676 3.628.675.59 1.152.815 4.218.815 1.572.252 3.182.127 4.696-.366a8.735 8.735 0 002.475-3.374.645.645 0 01.871.253 31.581 31.581 0 01-1.574 4.837h-17.238a.675.675 0 010-.872h1.153c1.969-.169 2.165-.675 2.165-4.358zm40.859 11.838v6.131c0 .196-.281.365-.675.365-.394-.591-1.434-1.8-4.442-5.259l-8.1-9.224c-.956-1.068-3.318-3.937-4.049-4.695a8.877 8.877 0 00-.169 2.277v7.593a27.552 27.552 0 00.618 7.227 2.392 2.392 0 001.8.647h1.069a.646.646 0 010 .871h-7.705a.644.644 0 010-.871h.956c.787 0 1.35-.31 1.519-.675.415-2.376.565-4.79.449-7.199v-10.096a3.207 3.207 0 00-.759-2.503 3.884 3.884 0 00-2.165-.844h-.591c-.197-.225-.197-.73 0-.871h3.937c.534.031 1.069.031 1.604 0a48.68 48.68 0 005.961 7.677l3.375 3.796c2.418 2.812 4.134 4.641 5.624 6.327a3.597 3.597 0 000-1.49v-7.508a25.336 25.336 0 00-.675-7.228c-.226-.309-.787-.506-2.165-.703h-.591c-.253-.225-.226-.759 0-.871h7.705a.619.619 0 010 .871h-.506c-1.098.197-1.8.479-1.94.731a28.327 28.327 0 00-.534 7.199zm10.827-14.678a15.012 15.012 0 019.42-2.952c2.089.027 4.167.312 6.187.844.325.064.659.064.984 0 0 .814.197 3.008.479 5.146a.732.732 0 01-.956 0 6.3 6.3 0 00-7.143-5.09c-5.344 0-9.871 3.403-9.871 10.602s4.641 11.248 10.349 11.248a7.424 7.424 0 007.312-5.005.756.756 0 01.899.141 13.444 13.444 0 01-1.658 4.78 9.014 9.014 0 00-1.238.365 20.412 20.412 0 01-5.624.787 15.233 15.233 0 01-8.688-2.334 11.245 11.245 0 01-4.949-9.589 11.578 11.578 0 014.497-8.943m24.521 2.84c0-3.628 0-4.162-2.108-4.387h-.562c-.225-.141-.141-.76 0-.873h10.686a42.77 42.77 0 004.696 0c.288 1.533.477 3.084.562 4.641-.141.197-.703.281-.872 0-.506-1.631-.843-2.812-2.643-3.29a15.03 15.03 0 00-3.375-.226h-2.53c-1.041 0-1.041 0-1.041 1.406v6.975c0 .984 0 .984 1.153.984h2.024c.943.031 1.887-.045 2.812-.226.422-.141.675-.337.843-1.209l.281-1.435a.649.649 0 01.9 0v6.862a.675.675 0 01-.9 0l-.309-1.377a1.49 1.49 0 00-1.097-1.322 11.5 11.5 0 00-2.672-.169h-2.024c-1.041 0-1.153 0-1.153.929v4.921c0 1.855 0 3.037.675 3.627.675.591 1.153.815 4.219.815a9.856 9.856 0 004.442-.534 8.702 8.702 0 002.503-3.374.646.646 0 01.872.253 31.476 31.476 0 01-1.575 4.837h-17.237a.675.675 0 010-.872h1.152c1.997-.169 2.165-.675 2.165-4.358zm25.477 18.334c-1.9.057-3.782-.39-5.455-1.293a15.546 15.546 0 01-.928-4.865c.169-.253.675-.338.815 0a6.382 6.382 0 006.018 5.202 3.965 3.965 0 004.359-4.022 5.26 5.26 0 00-2.812-4.893l-3.318-2.138a7.45 7.45 0 01-3.684-6.13c0-3.318 2.587-5.989 7.114-5.989 1.102.014 2.197.164 3.262.449.393.121.799.188 1.21.197a15.69 15.69 0 01.618 4.274.677.677 0 01-.872 0 4.554 4.554 0 00-4.724-3.937 3.655 3.655 0 00-4.162 3.88 5.627 5.627 0 002.952 4.303l2.812 1.743a7.846 7.846 0 014.358 6.693 6.578 6.578 0 01-7.424 6.439"/></g></svg>